<svg width="64" height="64" viewBox="0 0 64 64" fill="none" xmlns="http://www.w3.org/2000/svg">
<rect width="64" height="64" rx="32" fill="#FF5A8D"/>
<path fill-rule="evenodd" clip-rule="evenodd" d="M24.4827 9.19115C19.7489 9.95435 17.1963 13.3591 16.6539 19.6329C16.0927 26.1247 17.1202 37.2858 18.8609 43.6043C19.2077 44.8628 19.4771 45.5877 20.4147 47.7855C20.7376 48.5422 21.766 49.5073 22.826 50.0479C23.8802 50.5857 23.9485 50.8889 23.245 51.9113C22.1119 53.5583 22.3915 54.4232 24.0068 54.2671C24.9761 54.1735 25.561 53.8194 26.1563 52.9656C27.423 51.1486 27.2006 51.2493 29.9507 51.2491C32.0108 51.2491 32.6114 51.2022 33.8151 50.9472C35.8543 50.5152 36.0237 50.611 36.7238 52.5909C37.3357 54.3211 37.8769 54.8126 39.1705 54.8126C40.4665 54.8126 40.6745 53.6735 39.8278 51.2129C39.303 49.6876 39.4506 49.3558 41.0802 48.3968C43.9749 46.6931 44.2177 46.2411 45.4627 40.2354C48.5502 25.3408 48.1712 18.3993 44.0332 14.0545C41.6724 11.5757 39.4323 10.822 30.187 9.39549C28.6537 9.15889 25.4045 9.04252 24.4827 9.19115ZM23.2578 11.7351C18.2657 13.1258 16.7233 21.9173 18.9283 36.4129C20.466 46.5209 21.9676 48.6908 27.6802 49.0589C30.0132 49.2092 29.784 51.4515 29.9279 27.0834C30.0088 13.3763 30.0072 13.3509 28.9345 12.3505C28.1269 11.5971 24.9783 11.2558 23.2578 11.7351ZM32.9773 12.5389C31.8156 13.1248 31.8359 12.8291 31.6771 31.5178C31.532 48.6053 31.5183 48.0856 32.1308 48.593C32.9787 49.2954 38.2182 48.0427 40.5769 46.5734C42.7039 45.2486 42.9778 44.6887 44.0459 39.4821C46.9845 25.1576 46.5471 19.184 42.2693 15.2234C40.088 13.204 34.7284 11.6554 32.9773 12.5389Z" fill="white"/>
<circle cx="27.7085" cy="32.1247" r="0.842241" fill="white"/>
<circle cx="33.7983" cy="32.1247" r="0.842241" fill="white"/>
</svg>
